<svg width="414" height="512" viewBox="0 0 414 512" fill="none" xmlns="http://www.w3.org/2000/svg">
<path d="M13.3413 205.993C13.9855 235.772 27.3816 306.995 139.391 315.085C129.794 342.33 124.307 371.419 129.105 397.729C109.023 398.351 85.2521 403.04 73.9444 420.107C62.1038 437.996 69.368 463.952 78.3208 483.755C47.9527 484.177 53.9503 512 53.9503 512H113.267C116.088 512 118.71 510.6 120.287 508.289C121.887 505.977 122.242 503.044 121.265 500.422C115.377 484.444 108.18 456.91 125.797 451.088H125.774C138.215 448.243 151.122 448.065 163.607 450.577C167.517 451.154 171.449 451.732 175.381 452.154L246.248 459.643C261.932 461.332 276.95 466.888 289.946 475.844C318.715 495.6 345.106 512 353.414 512H399.156C399.156 512 402.399 482.4 361.301 483.511C361.301 483.511 345.772 462.377 326.401 437.577C347.928 436.755 368.588 428.888 385.251 415.221C432.259 374.665 411.554 314.043 393.604 286.866C389.584 280.444 381.519 277.889 374.544 280.844C370.567 282.666 367.612 286.133 366.435 290.333C365.257 294.533 365.991 299.044 368.434 302.667C369.967 304.934 405.423 358.534 365.835 392.712C352.794 403.023 336.578 408.534 319.96 408.312C321.56 404.801 322.471 401.046 322.648 397.201C346.041 390.801 375.987 376.223 365.88 344.223C349.885 293.666 271.53 272.843 271.4 272.82V272.754C324.317 262.621 361.529 235.753 361.529 184.529V184.507C361.507 167.818 357.553 151.373 349.977 136.506C346.423 87.0389 336.559 0.949458 311.034 0.0164668C283.731 -0.98354 260.583 43.817 251.12 65.195V65.1728C227.372 60.1727 202.846 60.1727 179.098 65.1728C169.634 43.8169 146.508 -0.984263 119.184 0.0169958C93.6587 0.950328 83.8171 87.0412 80.2405 136.507C72.6874 151.374 68.711 167.818 68.6888 184.507C68.6888 221.775 88.4163 246.13 119.517 260.552C87.3943 256.107 51.3857 242.663 47.3422 205.285H47.3644C55.162 199.707 59.805 190.685 59.8271 181.084C59.8494 177.551 59.1162 174.062 57.6945 170.84L71.4903 140.217C73.9784 134.55 72.0457 127.906 66.9139 124.439C64.0037 122.75 60.4937 122.373 57.2947 123.395C54.0957 124.417 51.4745 126.773 50.0749 129.839L43.566 144.306L41.811 127.484C41.3001 121.239 36.1683 116.373 29.9033 116.173C26.5488 116.173 23.3279 117.595 21.0837 120.106C18.84 122.617 17.7514 125.95 18.0847 129.306L20.9949 157.151H21.0171C8.93195 158.596 -0.132189 168.907 0.00145884 181.085C0.00145884 191.107 5.02211 200.44 13.3531 205.996L13.3413 205.993ZM321.999 348.861C324.576 359.216 309.98 365.505 298.672 368.772H298.695C294.274 355.794 288.786 343.238 282.277 331.193C300.738 334.793 319.91 340.505 321.999 348.861ZM279.123 128.06C302.049 128.06 320.621 151.438 320.621 180.283C320.621 209.128 302.049 232.506 279.123 232.506C256.196 232.506 237.624 209.128 237.624 180.283C237.602 151.438 256.196 128.06 279.123 128.06ZM202.057 214.015C202.057 209.104 207.899 209.237 215.097 209.237C222.295 209.237 228.138 209.126 228.138 214.015C228.138 217.637 221.051 220.748 217.319 222.126V232.215C218.608 236.86 222.629 240.193 227.427 240.548C234.358 239.593 239.29 233.282 238.557 226.326C238.557 225.104 239.556 224.104 240.778 224.104C242.022 224.104 243 225.104 243.022 226.326C243.777 235.748 236.846 244.059 227.427 245.015C222.361 244.882 217.696 242.148 215.097 237.793C212.498 242.149 207.855 244.882 202.767 245.015C193.348 244.06 186.417 235.748 187.194 226.326C187.172 225.726 187.416 225.148 187.838 224.726C188.26 224.326 188.816 224.081 189.416 224.081C190.015 224.081 190.571 224.326 190.993 224.726C191.415 225.148 191.637 225.726 191.637 226.326C190.904 233.282 195.836 239.592 202.767 240.548C207.565 240.193 211.609 236.859 212.875 232.215V222.126C209.142 220.748 202.057 217.637 202.057 214.015ZM109.573 180.281C109.573 151.436 128.144 128.058 151.071 128.058C173.997 128.058 192.569 151.436 192.569 180.281C192.569 209.126 173.997 232.504 151.071 232.504C128.167 232.504 109.573 209.126 109.573 180.281Z" fill="black"/>
<path d="M182.158 180.279C182.158 198.857 170.184 213.924 155.433 213.924C140.659 213.924 128.686 198.858 128.686 180.279C128.686 161.701 140.66 146.634 155.433 146.634C170.184 146.634 182.158 161.701 182.158 180.279Z" fill="black"/>
<path d="M301.519 180.279C301.519 198.857 289.545 213.924 274.794 213.924C260.021 213.924 248.047 198.858 248.047 180.279C248.047 161.701 260.021 146.634 274.794 146.634C289.545 146.634 301.519 161.701 301.519 180.279Z" fill="black"/>
</svg>
